HIERARCHY
ROOT pelvis
{
	OFFSET 0.003123 -0.351407 0.012037
	CHANNELS 6 Xposition Yposition Zposition Zrotation Yrotation Xrotation 
	JOINT left_hip
	{
		OFFSET 0.058189 -0.092763 -0.026001
		CHANNELS 3 Zrotation Yrotation Xrotation
		JOINT left_knee
		{
			OFFSET 0.054695 -0.378753 -0.009396
			CHANNELS 3 Zrotation Yrotation Xrotation
			JOINT left_ankle
			{
				OFFSET -0.043453 -0.403059 -0.031876
				CHANNELS 3 Zrotation Yrotation Xrotation
				JOINT left_foot
				{
					OFFSET 0.047257 -0.057997 0.118216
					CHANNELS 3 Zrotation Yrotation Xrotation
					End Site
					{
						OFFSET 0.000000 0.000000 0.000000
					}
				}
			}
		}
	}
	JOINT right_hip
	{
		OFFSET -0.063267 -0.103908 -0.021250
		CHANNELS 3 Zrotation Yrotation Xrotation
		JOINT right_knee
		{
			OFFSET -0.044210 -0.362380 -0.016824
			CHANNELS 3 Zrotation Yrotation Xrotation
			JOINT right_ankle
			{
				OFFSET 0.015417 -0.410728 -0.020192
				CHANNELS 3 Zrotation Yrotation Xrotation
				JOINT right_foot
				{
					OFFSET -0.038812 -0.058328 0.119049
					CHANNELS 3 Zrotation Yrotation Xrotation
					End Site
					{
						OFFSET 0.000000 0.000000 0.000000
					}
				}
			}
		}
	}
	JOINT spine_1
	{
		OFFSET -0.002763 0.109891 -0.027618
		CHANNELS 3 Zrotation Yrotation Xrotation
		JOINT spine_2
		{
			OFFSET 0.009448 0.131853 -0.005940
			CHANNELS 3 Zrotation Yrotation Xrotation
			JOINT spine_3
			{
				OFFSET -0.011330 0.052235 0.028447
				CHANNELS 3 Zrotation Yrotation Xrotation
				JOINT neck
				{
					OFFSET -0.012164 0.165167 -0.031615
					CHANNELS 3 Zrotation Yrotation Xrotation
					JOINT head
					{
						OFFSET 0.024783 0.160452 0.020737
						CHANNELS 3 Zrotation Yrotation Xrotation
						End Site
						{
							OFFSET 0.000000 0.000000 0.000000
						}
					}
				}
				JOINT left_collar
				{
					OFFSET 0.046364 0.084944 -0.007220
					CHANNELS 3 Zrotation Yrotation Xrotation
					JOINT left_shoulder
					{
						OFFSET 0.119239 0.057728 -0.015461
						CHANNELS 3 Zrotation Yrotation Xrotation
						JOINT left_elbow
						{
							OFFSET 0.254123 -0.072151 -0.042459
							CHANNELS 3 Zrotation Yrotation Xrotation
							JOINT left_wrist
							{
								OFFSET 0.251987 0.023221 -0.002472
								CHANNELS 3 Zrotation Yrotation Xrotation
								JOINT left_index_1
								{
									OFFSET 0.101902 -0.008688 0.019351
									CHANNELS 3 Zrotation Yrotation Xrotation
									JOINT left_index_2
									{
										OFFSET 0.030149 -0.011154 0.001151
										CHANNELS 3 Zrotation Yrotation Xrotation
										JOINT left_index_3
										{
											OFFSET 0.006504 -0.021577 -0.002433
											CHANNELS 3 Zrotation Yrotation Xrotation
											End Site
											{
												OFFSET 0.000000 0.000000 0.000000
											}
										}
									}
								}
								JOINT left_middle_1
								{
									OFFSET 0.109398 -0.006328 -0.003981
									CHANNELS 3 Zrotation Yrotation Xrotation
									JOINT left_middle_2
									{
										OFFSET 0.026472 -0.015218 -0.004641
										CHANNELS 3 Zrotation Yrotation Xrotation
										JOINT left_middle_3
										{
											OFFSET 0.005022 -0.023347 -0.001911
											CHANNELS 3 Zrotation Yrotation Xrotation
											End Site
											{
												OFFSET 0.000000 0.000000 0.000000
											}
										}
									}
								}
								JOINT left_pinky_1
								{
									OFFSET 0.084047 -0.014539 -0.043750
									CHANNELS 3 Zrotation Yrotation Xrotation
									JOINT left_pinky_2
									{
										OFFSET 0.012124 -0.014448 -0.005375
										CHANNELS 3 Zrotation Yrotation Xrotation
										JOINT left_pinky_3
										{
											OFFSET 0.003798 -0.018853 0.000167
											CHANNELS 3 Zrotation Yrotation Xrotation
											End Site
											{
												OFFSET 0.000000 0.000000 0.000000
											}
										}
									}
								}
								JOINT left_ring_1
								{
									OFFSET 0.097444 -0.009268 -0.027345
									CHANNELS 3 Zrotation Yrotation Xrotation
									JOINT left_ring_2
									{
										OFFSET 0.023561 -0.016057 -0.001895
										CHANNELS 3 Zrotation Yrotation Xrotation
										JOINT left_ring_3
										{
											OFFSET 0.004257 -0.023548 0.000814
											CHANNELS 3 Zrotation Yrotation Xrotation
											End Site
											{
												OFFSET 0.000000 0.000000 0.000000
											}
										}
									}
								}
								JOINT left_thumb_1
								{
									OFFSET 0.040636 -0.017977 0.025611
									CHANNELS 3 Zrotation Yrotation Xrotation
									JOINT left_thumb_2
									{
										OFFSET 0.021637 -0.017639 0.011623
										CHANNELS 3 Zrotation Yrotation Xrotation
										JOINT left_thumb_3
										{
											OFFSET 0.024002 -0.008356 0.006548
											CHANNELS 3 Zrotation Yrotation Xrotation
											End Site
											{
												OFFSET 0.000000 0.000000 0.000000
											}
										}
									}
								}
							}
						}
					}
				}
				JOINT right_collar
				{
					OFFSET -0.047695 0.084339 -0.013400
					CHANNELS 3 Zrotation Yrotation Xrotation
					JOINT right_shoulder
					{
						OFFSET -0.102578 0.053524 -0.012669
						CHANNELS 3 Zrotation Yrotation Xrotation
						JOINT right_elbow
						{
							OFFSET -0.271150 -0.036492 -0.026467
							CHANNELS 3 Zrotation Yrotation Xrotation
							JOINT right_wrist
							{
								OFFSET -0.249267 -0.004533 -0.015325
								CHANNELS 3 Zrotation Yrotation Xrotation
								JOINT right_index_1
								{
									OFFSET -0.099881 -0.011783 0.019600
									CHANNELS 3 Zrotation Yrotation Xrotation
									JOINT right_index_2
									{
										OFFSET -0.030148 -0.011154 0.001151
										CHANNELS 3 Zrotation Yrotation Xrotation
										JOINT right_index_3
										{
											OFFSET -0.006505 -0.021577 -0.002432
											CHANNELS 3 Zrotation Yrotation Xrotation
											End Site
											{
												OFFSET 0.000000 0.000000 0.000000
											}
										}
									}
								}
								JOINT right_middle_1
								{
									OFFSET -0.107376 -0.009422 -0.003734
									CHANNELS 3 Zrotation Yrotation Xrotation
									JOINT right_middle_2
									{
										OFFSET -0.026472 -0.015218 -0.004641
										CHANNELS 3 Zrotation Yrotation Xrotation
										JOINT right_middle_3
										{
											OFFSET -0.005022 -0.023347 -0.001911
											CHANNELS 3 Zrotation Yrotation Xrotation
											End Site
											{
												OFFSET 0.000000 0.000000 0.000000
											}
										}
									}
								}
								JOINT right_pinky_1
								{
									OFFSET -0.082027 -0.017634 -0.043503
									CHANNELS 3 Zrotation Yrotation Xrotation
									JOINT right_pinky_2
									{
										OFFSET -0.012123 -0.014448 -0.005374
										CHANNELS 3 Zrotation Yrotation Xrotation
										JOINT right_pinky_3
										{
											OFFSET -0.003798 -0.018852 0.000167
											CHANNELS 3 Zrotation Yrotation Xrotation
											End Site
											{
												OFFSET 0.000000 0.000000 0.000000
											}
										}
									}
								}
								JOINT right_ring_1
								{
									OFFSET -0.095423 -0.012362 -0.027099
									CHANNELS 3 Zrotation Yrotation Xrotation
									JOINT right_ring_2
									{
										OFFSET -0.023561 -0.016057 -0.001895
										CHANNELS 3 Zrotation Yrotation Xrotation
										JOINT right_ring_3
										{
											OFFSET -0.004257 -0.023548 0.000816
											CHANNELS 3 Zrotation Yrotation Xrotation
											End Site
											{
												OFFSET 0.000000 0.000000 0.000000
											}
										}
									}
								}
								JOINT right_thumb_1
								{
									OFFSET -0.038613 -0.021074 0.025861
									CHANNELS 3 Zrotation Yrotation Xrotation
									JOINT right_thumb_2
									{
										OFFSET -0.021636 -0.017639 0.011623
										CHANNELS 3 Zrotation Yrotation Xrotation
										JOINT right_thumb_3
										{
											OFFSET -0.024004 -0.008353 0.006547
											CHANNELS 3 Zrotation Yrotation Xrotation
											End Site
											{
												OFFSET 0.000000 0.000000 0.000000
											}
										}
									}
								}
							}
						}
					}
				}
			}
		}
	}
}
MOTION
Frames: 6
Frame Time: 0.050000
-1.402954 1.017174 0.549660 -2.015849 7.902266 1.834715 -4.379302 0.729291 3.160667 4.803676 -0.668428 2.386612 -4.831748 7.098015 20.091593 0.000000 0.000000 0.000000 4.688509 0.164861 -2.106681 -0.703263 0.029715 -0.340782 11.921402 7.665762 20.831240 0.000000 0.000000 0.000000 7.343361 -1.039394 9.913729 -9.133723 -0.292054 -19.074005 6.994106 1.597324 13.082478 -1.257708 1.125544 -6.343480 0.000000 0.000000 0.000000 6.929299 -16.057771 7.771103 -83.823867 -7.104546 -13.130223 -20.183812 -8.934415 2.308875 1.131893 2.989920 13.696226 -0.679581 -0.989782 -0.422946 8.125252 -0.199413 3.880945 0.000000 0.000000 0.000000 1.679848 -0.437896 0.054517 3.098495 0.243579 3.940245 0.000000 0.000000 0.000000 15.651033 -0.763968 7.378090 -16.002483 -1.304391 -6.338468 0.000000 0.000000 0.000000 5.304491 1.049908 1.192731 -3.914393 -0.110655 -1.644115 0.000000 0.000000 0.000000 0.003552 -1.079273 -1.085443 -1.982374 -1.151796 0.319104 0.000000 0.000000 0.000000 -7.780817 5.231434 2.709846 85.946658 -10.301641 -13.649051 9.527375 27.899950 1.328488 -0.127176 -3.353576 -6.335948 8.273507 0.744728 0.119333 -3.628666 0.357564 -0.938777 0.000000 0.000000 0.000000 9.164895 -3.100539 -0.041392 -7.087500 0.501272 -2.149488 0.000000 0.000000 0.000000 11.770715 -4.811604 1.553700 -10.342199 1.426215 -5.857012 0.000000 0.000000 0.000000 9.926597 -2.040233 0.701348 -7.209836 0.357216 -4.787754 0.000000 0.000000 0.000000 6.915287 10.104631 -2.038438 -4.852543 -9.751435 3.340963 0.000000 0.000000 0.000000 
-1.410492 1.017174 0.549660 -1.108235 5.800836 2.181089 -4.499688 1.217348 5.895786 2.620606 0.155268 -2.551963 -2.722318 10.034718 21.137686 0.000000 0.000000 0.000000 4.495766 0.170228 -2.206302 -1.460344 0.057682 -0.567019 12.770919 8.873465 20.367965 0.000000 0.000000 0.000000 3.057720 -0.724527 8.991521 -7.517152 -0.500950 -17.369819 9.408579 1.942997 11.653723 -2.672667 1.195191 -6.003781 0.000000 0.000000 0.000000 6.012323 -13.116919 6.486846 -83.387904 -5.226783 -13.433886 -20.827609 -8.224934 2.145551 2.755297 2.900917 9.975039 -9.469596 -1.014372 -0.081766 16.616315 -1.154130 6.478298 0.000000 0.000000 0.000000 -3.692096 0.865628 -0.219027 8.343886 -0.273138 6.109317 0.000000 0.000000 0.000000 2.813642 1.801341 3.090001 -0.235995 0.130574 1.988697 0.000000 0.000000 0.000000 3.274018 2.504391 1.889478 -3.897498 0.114080 0.788646 0.000000 0.000000 0.000000 -8.220435 0.425634 3.904987 2.709552 -3.016269 -1.871251 0.000000 0.000000 0.000000 -8.546478 7.326922 3.726139 86.509175 -10.158616 -14.247964 7.125389 29.233345 0.949678 6.483613 -2.716919 -3.921437 -14.983381 1.805777 -1.125263 15.251488 -0.514622 -1.373519 0.000000 0.000000 0.000000 -12.131684 -0.219763 2.876090 14.175476 2.297125 -7.363637 0.000000 0.000000 0.000000 5.578917 0.512465 -3.118248 -18.263023 0.179611 -0.533799 0.000000 0.000000 0.000000 -8.510479 -0.387862 1.168178 10.648076 3.039938 -6.304334 0.000000 0.000000 0.000000 2.770357 5.535458 -2.498388 -17.104326 -0.710036 -3.931662 0.000000 0.000000 0.000000 
-1.410492 1.017174 0.549660 -1.139708 5.810934 1.824073 -4.361153 1.384970 6.944208 2.432271 0.354413 -4.090221 -2.748798 10.418635 21.953990 0.000000 0.000000 0.000000 4.515142 0.130489 -1.946686 -1.444029 0.061019 -0.489645 12.854020 8.815615 20.627118 0.000000 0.000000 0.000000 3.141493 -0.831207 10.041069 -7.675251 -0.777920 -18.639176 7.883200 2.368951 12.918529 0.711385 1.000424 -6.724662 0.000000 0.000000 0.000000 8.849125 -12.215051 6.206495 -84.512841 -5.612746 -13.786006 -20.776794 -7.996109 2.082270 2.851269 2.856799 10.747705 -9.609853 -1.491968 -0.239805 17.353487 -1.218313 6.925119 0.000000 0.000000 0.000000 -3.334284 0.191800 -0.502019 8.484449 -0.306958 6.229576 0.000000 0.000000 0.000000 20.834086 0.282225 11.390381 -24.247046 -3.063152 -9.115730 0.000000 0.000000 0.000000 4.046343 1.896517 1.578203 -5.356482 0.197660 1.053685 0.000000 0.000000 0.000000 -8.238012 -0.064167 3.481675 2.037235 -2.732984 -1.551704 0.000000 0.000000 0.000000 -5.538332 7.841920 3.999767 85.132770 -9.702223 -13.515242 8.992396 29.439853 1.353911 -0.313024 -3.386141 -7.232374 -7.788584 1.848858 -0.808172 16.538328 -1.270359 1.222616 0.000000 0.000000 0.000000 -5.907275 -1.650231 2.310059 14.719235 1.577613 -4.666351 0.000000 0.000000 0.000000 9.610704 -3.939858 1.515400 -16.888420 1.743827 -7.807624 0.000000 0.000000 0.000000 -5.476940 -1.870902 2.051302 16.015906 3.057279 -3.572117 0.000000 0.000000 0.000000 5.527137 7.487599 -1.259643 -2.998621 -4.855080 1.475944 0.000000 0.000000 0.000000 
-1.410492 1.017174 0.550980 -2.653192 4.461838 2.048889 -2.881991 1.227419 6.850266 2.174755 0.455106 -4.884997 -1.965577 11.381839 22.451640 0.000000 0.000000 0.000000 6.263544 0.225129 -2.841048 -1.757043 0.097852 -0.032308 13.961043 9.145384 22.083676 0.000000 0.000000 0.000000 5.687865 -0.980715 9.946655 -8.789853 -0.502249 -18.733736 8.189262 3.613544 13.302309 0.606693 1.028977 -6.843921 0.000000 0.000000 0.000000 6.850187 -11.732275 5.963465 -81.324365 -4.929308 -13.659236 -22.183389 -7.961923 2.171655 -1.819864 3.712677 13.222037 8.675269 -1.475303 -1.226696 -7.850866 1.952418 0.682972 0.000000 0.000000 0.000000 13.723339 0.453993 2.725322 -15.288400 1.433910 -3.579659 0.000000 0.000000 0.000000 14.859734 -0.843163 7.366303 -12.794617 -1.287179 -7.920032 0.000000 0.000000 0.000000 4.915398 0.645707 0.979375 1.425975 0.039963 0.199098 0.000000 0.000000 0.000000 0.953665 -1.596399 -1.997948 0.209137 0.011589 -0.057241 0.000000 0.000000 0.000000 -7.276635 8.140761 4.066756 86.523428 -9.630310 -13.562657 9.243535 29.594870 1.408597 -1.709229 -3.782442 -7.259204 -2.763463 2.245738 -0.796317 4.803560 -0.498800 0.777110 0.000000 0.000000 0.000000 -2.143936 -1.218677 1.145866 4.232435 0.558111 -2.665827 0.000000 0.000000 0.000000 8.029890 -1.879957 -0.474779 -16.562975 0.545864 -1.864271 0.000000 0.000000 0.000000 -2.070071 -0.933029 0.884872 6.916186 1.231313 -2.077654 0.000000 0.000000 0.000000 4.973465 5.671214 -0.528841 0.510755 -3.400750 1.446491 0.000000 0.000000 0.000000 
-1.402954 1.016529 0.552299 -2.025139 6.716039 2.241971 -4.187112 1.176494 5.830578 3.132648 0.292625 -3.757199 -2.957553 10.143608 21.655066 0.000000 0.000000 0.000000 4.630498 0.216491 -2.480885 -0.781316 0.005616 -0.920887 13.039117 7.957397 22.465049 0.000000 0.000000 0.000000 4.702919 -0.930446 10.134864 -3.355974 -2.394372 -19.274800 4.632080 3.942765 13.864962 -2.578574 1.242744 -6.313060 0.000000 0.000000 0.000000 6.017214 -11.202429 5.788587 -81.643503 -4.389431 -14.656050 -22.260676 -8.036183 2.211087 -1.648827 3.664146 13.917172 8.201500 -1.487948 -1.202715 -6.341792 1.767490 0.904164 0.000000 0.000000 0.000000 13.677895 0.177651 2.493864 -14.337731 1.416500 -3.415503 0.000000 0.000000 0.000000 16.169725 -1.424892 7.360359 -13.460896 -1.236266 -8.061981 0.000000 0.000000 0.000000 5.418904 0.546051 0.955123 1.847726 -0.004184 -0.142719 0.000000 0.000000 0.000000 1.828185 -1.406400 -2.240506 -2.007396 -0.853794 0.427091 0.000000 0.000000 0.000000 -8.440868 8.827215 4.232760 86.378290 -8.978464 -12.065981 8.701846 29.812578 1.252437 -1.596346 -3.715164 -8.466295 -3.388017 2.528956 -0.874028 9.394899 -1.045846 2.071231 0.000000 0.000000 0.000000 -1.394532 -1.494630 1.166748 6.415142 0.904704 -3.623019 0.000000 0.000000 0.000000 -4.674655 -1.703280 4.941637 10.529100 4.054979 -8.937322 0.000000 0.000000 0.000000 -1.183901 -0.766537 0.687757 5.599903 2.069537 -5.057117 0.000000 0.000000 0.000000 5.857882 7.283985 -0.724895 -19.014983 -3.525666 -1.872846 0.000000 0.000000 0.000000 
-1.402954 1.015240 0.553619 -2.080610 7.073154 1.838386 -4.048760 1.200320 6.061488 3.113694 0.270972 -3.574911 -3.054231 9.849540 21.219791 0.000000 0.000000 0.000000 4.705303 0.156994 -2.092431 0.190908 -0.059871 -1.259813 11.348509 5.321609 22.995016 0.000000 0.000000 0.000000 4.748328 -0.944796 10.291031 -7.636813 -0.627153 -18.224383 8.831894 1.352848 12.880047 -2.348998 1.226019 -6.420597 0.000000 0.000000 0.000000 6.120197 -12.108820 6.070691 -83.073341 -5.052803 -13.648078 -21.391444 -8.651496 2.315251 2.974388 2.796870 10.698168 -9.972420 -0.958835 -0.065468 17.940685 -1.929426 3.768312 0.000000 0.000000 0.000000 -3.412313 0.649490 -0.282315 7.373248 -0.220802 5.525836 0.000000 0.000000 0.000000 3.881173 1.134043 2.939483 -1.744468 -0.005912 1.022410 0.000000 0.000000 0.000000 3.557992 2.089367 1.638734 -4.490589 -0.004172 -0.108059 0.000000 0.000000 0.000000 -8.068741 -0.583434 3.000001 1.312320 -2.427677 -1.205310 0.000000 0.000000 0.000000 -8.864432 7.185507 3.621577 86.752139 -8.774209 -13.180253 6.290680 29.650838 0.799455 1.905384 -3.729876 -7.646635 -8.349184 1.650144 -0.703679 16.763001 -1.113715 1.079753 0.000000 0.000000 0.000000 -6.242041 -2.005324 2.702103 14.705354 2.038581 -5.494260 0.000000 0.000000 0.000000 8.470245 -3.416547 1.257380 -16.546335 1.607838 -6.752776 0.000000 0.000000 0.000000 -5.384882 -2.057055 2.238479 14.156769 3.139524 -4.082256 0.000000 0.000000 0.000000 5.048649 7.390542 -1.576783 -2.897661 -4.945738 1.502853 0.000000 0.000000 0.000000 
